<svg version="1.0" xmlns="http://www.w3.org/2000/svg"  width="600.000000pt" height="600.000000pt" viewBox="0 0 600.000000 600.000000"  preserveAspectRatio="xMidYMid meet"> <g transform="translate(0.000000,600.000000) scale(0.100000,-0.100000)" fill="#ffff" stroke="none"> <path d="M1345 5722 c-85 -48 -159 -99 -186 -128 -36 -39 -48 -81 -57 -204 -16 -209 12 -992 43 -1210 3 -19 21 -231 40 -470 20 -239 43 -500 51 -580 8 -80 19 -244 24 -365 5 -121 16 -254 24 -295 8 -41 20 -127 26 -190 6 -62 20 -166 31 -230 10 -63 28 -180 40 -260 35 -256 48 -323 79 -420 17 -52 44 -148 61 -213 24 -90 53 -162 121 -299 105 -214 139 -253 341 -392 154 -106 229 -141 407 -195 463 -138 773 -120 1157 69 253 123 396 229 482 354 47 68 96 177 156 351 67 192 89 275 110 420 93 643 112 729 235 1090 63 183 133 463 162 645 31 187 33 641 5 795 -58 310 -151 524 -336 771 -98 131 -134 164 -192 171 -86 12 -99 -38 -98 -382 1 -142 -4 -289 -10 -340 -28 -210 -104 -499 -187 -705 -51 -128 -179 -290 -286 -363 -85 -58 -155 -67 -450 -60 -172 4 -294 2 -400 -7 -199 -18 -384 -17 -473 3 -128 28 -157 38 -182 65 -14 15 -44 47 -68 72 -24 25 -58 70 -76 100 -57 99 -168 325 -189 385 -29 84 -116 423 -134 525 -8 47 -31 171 -50 275 -52 285 -85 571 -96 840 -10 247 -17 357 -26 388 -8 25 -41 21 -99 -11z m2512 -3962 c149 -64 219 -245 194 -499 -12 -128 -35 -200 -105 -335 -77 -149 -194 -261 -324 -309 -44 -16 -81 -21 -157 -22 -87 0 -106 3 -150 25 -60 30 -97 85 -121 180 -24 93 -15 341 16 460 67 260 232 462 420 515 71 19 161 14 227 -15z m-1673 -7 c111 -43 245 -166 317 -290 118 -204 146 -572 58 -764 -16 -35 -34 -54 -73 -77 -76 -47 -109 -55 -192 -50 -64 4 -89 12 -168 51 -128 64 -206 124 -256 196 -108 160 -182 437 -159 599 27 192 121 325 251 352 56 12 170 3 222 -17z"/> </g> </svg>