<svg version="1.0" xmlns="http://www.w3.org/2000/svg"  width="128.000000pt" height="128.000000pt" viewBox="0 0 128.000000 128.000000"  preserveAspectRatio="xMidYMid meet"> <g transform="translate(0.000000,128.000000) scale(0.100000,-0.100000)" fill="#000000" stroke="none"> <path d="M147 1262 c-15 -17 -17 -75 -17 -624 0 -573 1 -606 18 -621 25 -23 58 -21 82 3 19 19 20 33 20 215 l0 195 416 0 416 0 34 34 c28 28 34 42 34 76 0 54 -6 65 -117 198 -59 71 -91 117 -86 125 4 6 51 65 105 130 88 106 98 122 98 158 0 22 -7 53 -15 69 -31 60 -30 60 -523 60 -422 0 -450 -1 -465 -18z m871 -119 c-143 -167 -218 -267 -218 -291 0 -19 22 -53 74 -114 40 -48 92 -110 115 -137 l43 -51 -391 0 -391 0 0 305 0 305 392 0 c372 0 390 -1 376 -17z"/> </g> </svg>