<svg version="1.0" xmlns="http://www.w3.org/2000/svg"  width="128.000000pt" height="128.000000pt" viewBox="0 0 128.000000 128.000000"  preserveAspectRatio="xMidYMid meet"> <g transform="translate(0.000000,128.000000) scale(0.100000,-0.100000)" fill="#000000" stroke="none"> <path d="M531 1215 c-25 -27 -41 -54 -41 -69 0 -19 34 -58 136 -158 74 -73 145 -135 156 -136 26 -5 118 83 118 112 0 12 -55 75 -137 158 -160 161 -167 164 -232 93z"/> <path d="M370 975 l-105 -105 123 -123 122 -122 105 105 105 105 -123 123 -122 122 -105 -105z"/> <path d="M135 819 c-73 -68 -69 -79 88 -236 100 -100 139 -133 157 -133 46 1 127 91 116 128 -11 33 -271 282 -295 282 -12 0 -42 -19 -66 -41z"/> <path d="M642 707 c-29 -29 -52 -56 -52 -60 0 -5 110 -127 245 -272 200 -215 252 -265 278 -270 67 -13 130 38 130 103 0 22 -7 49 -14 59 -17 24 -520 493 -528 493 -4 0 -30 -24 -59 -53z"/> <path d="M170 283 c-34 -13 -51 -37 -48 -69 2 -26 -4 -37 -25 -54 -35 -27 -57 -70 -57 -110 l0 -30 385 0 385 0 0 26 c0 39 -30 95 -61 112 -22 13 -26 23 -25 54 2 72 -2 73 -287 75 -139 1 -259 -1 -267 -4z"/> </g> </svg>